<?xml version="1.0" encoding="utf-8"?>
<!-- Generator: Adobe Illustrator 26.5.3, SVG Export Plug-In . SVG Version: 6.00 Build 0)  -->
<svg version="1.1" id="Ebene_1" xmlns="http://www.w3.org/2000/svg" xmlns:xlink="http://www.w3.org/1999/xlink" x="0px" y="0px"
	 viewBox="0 0 756 322" style="enable-background:new 0 0 756 322;" xml:space="preserve">
<style type="text/css">
	.st0{fill:#1CAEE5;}
</style>
<g>
	<path class="st0" d="M216.1,45.2h-8.6c-1,0-1.8,0.4-2.5,1.1c-0.7,0.7-1.1,1.6-1.1,2.5v16.6c0,1,0.4,1.8,1,2.5
		c0.7,0.7,1.6,1.1,2.6,1.1h8.6c1,0,1.8-0.4,2.5-1.1c0.7-0.7,1.1-1.6,1.1-2.5V48.8c0-1-0.4-1.8-1.1-2.5
		C217.9,45.5,217.1,45.2,216.1,45.2z M215.1,49.8v14.5h-6.6V49.8H215.1z"/>
	<path class="st0" d="M206.2,94.3c-0.6,0-1.2,0.2-1.6,0.7c-0.4,0.4-0.7,1-0.7,1.6s0.2,1.2,0.7,1.6c0.4,0.5,1,0.7,1.7,0.7h11.2
		c0.6,0,1.2-0.2,1.6-0.7c0.4-0.4,0.7-1,0.7-1.6v-7.1c0-0.6-0.2-1.2-0.7-1.6c-0.9-0.9-2.4-0.9-3.3,0c-0.4,0.4-0.7,1-0.7,1.6v4.8h-0.9
		V75.2h-7.9c-0.6,0-1.2,0.2-1.6,0.7c-0.4,0.4-0.7,1-0.7,1.6s0.2,1.2,0.7,1.6c0.4,0.4,1,0.7,1.6,0.7h3.2v14.5L206.2,94.3L206.2,94.3z
		"/>
	<path class="st0" d="M206.2,128.9h11.2c0.6,0,1.2-0.2,1.6-0.7c0.4-0.4,0.7-1,0.7-1.6v-7.1c0-0.6-0.2-1.2-0.7-1.6
		c-0.9-0.9-2.4-0.9-3.3,0c-0.4,0.4-0.7,1-0.7,1.6v4.8h-0.9v-19.1h-7.9c-0.6,0-1.2,0.2-1.6,0.7c-0.4,0.4-0.7,1-0.7,1.6
		s0.2,1.2,0.7,1.6c0.4,0.4,1,0.7,1.6,0.7h3.2v14.5h-3.3c-0.6,0-1.2,0.2-1.6,0.7c-0.4,0.4-0.7,1-0.7,1.6s0.2,1.2,0.7,1.6
		C205,128.7,205.5,128.9,206.2,128.9z"/>
	<path class="st0" d="M216.1,135.1h-8.6c-1,0-1.8,0.4-2.5,1.1c-0.7,0.7-1.1,1.6-1.1,2.5v16.6c0,1,0.4,1.8,1,2.5
		c0.7,0.7,1.6,1.1,2.6,1.1h8.6c1,0,1.8-0.4,2.5-1.1c0.7-0.7,1.1-1.6,1.1-2.5v-16.6c0-1-0.4-1.8-1.1-2.5
		C217.9,135.5,217.1,135.1,216.1,135.1z M215.1,139.8v14.4h-6.6v-14.4H215.1z"/>
	<path class="st0" d="M206.2,188.9h11.2c0.6,0,1.2-0.2,1.6-0.7c0.4-0.4,0.7-1,0.7-1.6v-7.1c0-0.6-0.2-1.2-0.7-1.6
		c-0.9-0.9-2.4-0.9-3.3,0c-0.4,0.4-0.7,1-0.7,1.6v4.8h-0.9v-19.1h-7.9c-0.6,0-1.2,0.2-1.6,0.7c-0.4,0.4-0.7,1-0.7,1.6
		c0,0.6,0.2,1.2,0.7,1.6c0.4,0.4,1,0.7,1.6,0.7h3.2v14.4h-3.3c-0.6,0-1.2,0.2-1.6,0.7c-0.4,0.4-0.7,1-0.7,1.6c0,0.6,0.2,1.2,0.7,1.6
		C205,188.6,205.5,188.9,206.2,188.9z"/>
	<path class="st0" d="M216.1,195.1h-8.6c-1,0-1.8,0.4-2.5,1.1c-0.7,0.7-1.1,1.6-1.1,2.5v16.6c0,1,0.4,1.8,1,2.5
		c0.7,0.7,1.6,1.1,2.6,1.1h8.6c1,0,1.8-0.4,2.5-1.1c0.7-0.7,1.1-1.6,1.1-2.5v-16.6c0-1-0.4-1.8-1.1-2.5
		C217.9,195.5,217.1,195.1,216.1,195.1z M215.1,199.8v14.4h-6.6v-14.4H215.1z"/>
	<path class="st0" d="M216.1,225.1h-8.6c-1,0-1.8,0.4-2.5,1.1c-0.7,0.7-1.1,1.6-1.1,2.5v16.6c0,1,0.4,1.8,1,2.5
		c0.7,0.7,1.6,1.1,2.6,1.1h8.6c1,0,1.8-0.4,2.5-1.1c0.7-0.7,1.1-1.6,1.1-2.5v-16.6c0-1-0.4-1.8-1.1-2.5
		C217.9,225.5,217.1,225.1,216.1,225.1z M215.1,229.8v14.5h-6.6v-14.5H215.1z"/>
	<path class="st0" d="M215.7,267.7c-0.4,0.4-0.7,1-0.7,1.6v4.8h-0.9v-19.1h-7.9c-0.6,0-1.2,0.2-1.6,0.7c-0.4,0.4-0.7,1-0.7,1.6
		s0.2,1.2,0.7,1.6c0.4,0.4,1,0.7,1.6,0.7h3.2v14.5h-3.3c-0.6,0-1.2,0.2-1.6,0.7c-0.4,0.4-0.7,1-0.7,1.6s0.2,1.2,0.7,1.6
		c0.4,0.5,1,0.7,1.7,0.7h11.2c0.6,0,1.2-0.2,1.6-0.7c0.4-0.4,0.7-1,0.7-1.6v-7.1c0-0.6-0.2-1.2-0.7-1.6
		C218.1,266.8,216.6,266.8,215.7,267.7z"/>
	<path class="st0" d="M246.4,75.2h-8.6c-1,0-1.8,0.4-2.5,1.1c-0.7,0.7-1.1,1.6-1.1,2.5v16.6c0,1,0.4,1.8,1,2.5
		c0.7,0.7,1.6,1.1,2.6,1.1h8.6c1,0,1.8-0.4,2.5-1.1c0.7-0.7,1.1-1.6,1.1-2.5V78.8c0-1-0.4-1.8-1.1-2.5
		C248.3,75.5,247.4,75.2,246.4,75.2z M245.4,79.8v14.5h-6.6V79.8H245.4z"/>
	<path class="st0" d="M236.5,124.3c-0.6,0-1.2,0.2-1.6,0.7c-0.4,0.4-0.7,1-0.7,1.6s0.2,1.2,0.7,1.6c0.4,0.5,1,0.7,1.7,0.7h11.2
		c0.6,0,1.2-0.2,1.6-0.7c0.4-0.4,0.7-1,0.7-1.6v-7.1c0-0.6-0.2-1.2-0.7-1.6c-0.9-0.9-2.4-0.9-3.3,0c-0.4,0.4-0.7,1-0.7,1.6v4.8h-0.9
		v-19.1h-7.9c-0.6,0-1.2,0.2-1.6,0.7c-0.4,0.4-0.7,1-0.7,1.6c0,0.6,0.2,1.2,0.7,1.6c0.4,0.4,1,0.7,1.6,0.7h3.2v14.5
		C239.8,124.3,236.5,124.3,236.5,124.3z"/>
	<path class="st0" d="M236.5,158.9h11.2c0.6,0,1.2-0.2,1.6-0.7c0.4-0.4,0.7-1,0.7-1.6v-7.1c0-0.6-0.2-1.2-0.7-1.6
		c-0.9-0.9-2.4-0.9-3.3,0c-0.4,0.4-0.7,1-0.7,1.6v4.8h-0.9v-19.1h-7.9c-0.6,0-1.2,0.2-1.6,0.7c-0.4,0.4-0.7,1-0.7,1.6
		c0,0.6,0.2,1.2,0.7,1.6c0.4,0.4,1,0.7,1.6,0.7h3.2v14.4h-3.3c-0.6,0-1.2,0.2-1.6,0.7c-0.4,0.4-0.7,1-0.7,1.6c0,0.6,0.2,1.2,0.7,1.6
		C235.3,158.7,235.9,158.9,236.5,158.9z"/>
	<path class="st0" d="M236.5,188.9h11.2c0.6,0,1.2-0.2,1.6-0.7c0.4-0.4,0.7-1,0.7-1.6v-7.1c0-0.6-0.2-1.2-0.7-1.6
		c-0.9-0.9-2.4-0.9-3.3,0c-0.4,0.4-0.7,1-0.7,1.6v4.8h-0.9v-19.1h-7.9c-0.6,0-1.2,0.2-1.6,0.7c-0.4,0.4-0.7,1-0.7,1.6
		c0,0.6,0.2,1.2,0.7,1.6c0.4,0.4,1,0.7,1.6,0.7h3.2v14.4h-3.3c-0.6,0-1.2,0.2-1.6,0.7c-0.4,0.4-0.7,1-0.7,1.6c0,0.6,0.2,1.2,0.7,1.6
		C235.3,188.6,235.9,188.9,236.5,188.9z"/>
	<path class="st0" d="M246.4,195.1h-8.6c-1,0-1.8,0.4-2.5,1.1c-0.7,0.7-1.1,1.6-1.1,2.5v16.6c0,1,0.4,1.8,1,2.5
		c0.7,0.7,1.6,1.1,2.6,1.1h8.6c1,0,1.8-0.4,2.5-1.1c0.7-0.7,1.1-1.6,1.1-2.5v-16.6c0-1-0.4-1.8-1.1-2.5
		C248.3,195.5,247.4,195.1,246.4,195.1z M245.4,199.8v14.4h-6.6v-14.4H245.4z"/>
	<path class="st0" d="M236.5,248.9h11.2c0.6,0,1.2-0.2,1.6-0.7c0.4-0.4,0.7-1,0.7-1.6v-7.1c0-0.6-0.2-1.2-0.7-1.6
		c-0.9-0.9-2.4-0.9-3.3,0c-0.4,0.4-0.7,1-0.7,1.6v4.8h-0.9v-19.1h-7.9c-0.6,0-1.2,0.2-1.6,0.7c-0.4,0.4-0.7,1-0.7,1.6
		c0,0.6,0.2,1.2,0.7,1.6c0.4,0.4,1,0.7,1.6,0.7h3.2v14.5h-3.3c-0.6,0-1.2,0.2-1.6,0.7c-0.4,0.4-0.7,1-0.7,1.6c0,0.6,0.2,1.2,0.7,1.6
		C235.3,248.6,235.9,248.9,236.5,248.9z"/>
	<path class="st0" d="M246.4,255.1h-8.6c-1,0-1.8,0.4-2.5,1.1c-0.7,0.7-1.1,1.6-1.1,2.5v16.6c0,1,0.4,1.8,1,2.5
		c0.7,0.7,1.6,1.1,2.6,1.1h8.6c1,0,1.8-0.4,2.5-1.1c0.7-0.7,1.1-1.6,1.1-2.5v-16.6c0-1-0.4-1.8-1.1-2.5
		C248.3,255.4,247.4,255.1,246.4,255.1z M245.4,259.8v14.5h-6.6v-14.5H245.4z"/>
	<path class="st0" d="M246.4,285.1h-8.6c-1,0-1.8,0.4-2.5,1.1c-0.7,0.7-1.1,1.6-1.1,2.5v16.6c0,1,0.4,1.8,1,2.5
		c0.7,0.7,1.6,1.1,2.6,1.1h8.6c1,0,1.8-0.4,2.5-1.1s1.1-1.6,1.1-2.5v-16.6c0-1-0.4-1.8-1.1-2.5C248.3,285.4,247.4,285.1,246.4,285.1
		z M245.4,289.7v14.5h-6.6v-14.5H245.4z"/>
	<path class="st0" d="M276.8,45.2h-8.6c-1,0-1.8,0.4-2.5,1.1c-0.7,0.7-1.1,1.6-1.1,2.5v16.6c0,1,0.4,1.8,1,2.5
		c0.7,0.7,1.6,1.1,2.6,1.1h8.6c1,0,1.8-0.4,2.5-1.1s1.1-1.6,1.1-2.5V48.8c0-1-0.4-1.8-1.1-2.5C278.6,45.5,277.7,45.2,276.8,45.2z
		 M275.7,49.8v14.5h-6.6V49.8H275.7z"/>
	<path class="st0" d="M266.8,94.3c-0.6,0-1.2,0.2-1.6,0.7c-0.4,0.4-0.7,1-0.7,1.6s0.2,1.2,0.7,1.6c0.4,0.5,1,0.7,1.7,0.7H278
		c0.6,0,1.2-0.2,1.6-0.7c0.4-0.4,0.7-1,0.7-1.6v-7.1c0-0.6-0.2-1.2-0.7-1.6c-0.9-0.9-2.4-0.9-3.3,0c-0.4,0.4-0.7,1-0.7,1.6v4.8h-0.9
		V75.2h-7.9c-0.6,0-1.2,0.2-1.6,0.7c-0.4,0.4-0.7,1-0.7,1.6s0.2,1.2,0.7,1.6c0.4,0.4,1,0.7,1.6,0.7h3.2v14.5L266.8,94.3L266.8,94.3z
		"/>
	<path class="st0" d="M276.8,105.1h-8.6c-1,0-1.8,0.4-2.5,1.1c-0.7,0.7-1.1,1.6-1.1,2.5v16.6c0,1,0.4,1.8,1,2.5
		c0.7,0.7,1.6,1.1,2.6,1.1h8.6c1,0,1.8-0.4,2.5-1.1c0.7-0.7,1.1-1.6,1.1-2.5v-16.6c0-1-0.4-1.8-1.1-2.5
		C278.6,105.5,277.7,105.1,276.8,105.1z M275.7,109.8v14.5h-6.6v-14.5H275.7z"/>
	<path class="st0" d="M276.8,135.1h-8.6c-1,0-1.8,0.4-2.5,1.1c-0.7,0.7-1.1,1.6-1.1,2.5v16.6c0,1,0.4,1.8,1,2.5
		c0.7,0.7,1.6,1.1,2.6,1.1h8.6c1,0,1.8-0.4,2.5-1.1c0.7-0.7,1.1-1.6,1.1-2.5v-16.6c0-1-0.4-1.8-1.1-2.5
		C278.6,135.5,277.7,135.1,276.8,135.1z M275.7,139.8v14.4h-6.6v-14.4H275.7z"/>
	<path class="st0" d="M276.8,165.1h-8.6c-1,0-1.8,0.4-2.5,1.1c-0.7,0.7-1.1,1.6-1.1,2.5v16.6c0,1,0.4,1.8,1,2.5
		c0.7,0.7,1.6,1.1,2.6,1.1h8.6c1,0,1.8-0.4,2.5-1.1c0.7-0.7,1.1-1.6,1.1-2.5v-16.6c0-1-0.4-1.8-1.1-2.5
		C278.6,165.5,277.7,165.1,276.8,165.1z M275.7,169.8v14.4h-6.6v-14.4H275.7z"/>
	<path class="st0" d="M276.8,195.1h-8.6c-1,0-1.8,0.4-2.5,1.1c-0.7,0.7-1.1,1.6-1.1,2.5v16.6c0,1,0.4,1.8,1,2.5
		c0.7,0.7,1.6,1.1,2.6,1.1h8.6c1,0,1.8-0.4,2.5-1.1c0.7-0.7,1.1-1.6,1.1-2.5v-16.6c0-1-0.4-1.8-1.1-2.5
		C278.6,195.5,277.7,195.1,276.8,195.1z M275.7,199.8v14.4h-6.6v-14.4H275.7z"/>
	<path class="st0" d="M276.8,225.1h-8.6c-1,0-1.8,0.4-2.5,1.1c-0.7,0.7-1.1,1.6-1.1,2.5v16.6c0,1,0.4,1.8,1,2.5
		c0.7,0.7,1.6,1.1,2.6,1.1h8.6c1,0,1.8-0.4,2.5-1.1s1.1-1.6,1.1-2.5v-16.6c0-1-0.4-1.8-1.1-2.5C278.6,225.5,277.7,225.1,276.8,225.1
		z M275.7,229.8v14.5h-6.6v-14.5H275.7z"/>
	<path class="st0" d="M276.8,255.1h-8.6c-1,0-1.8,0.4-2.5,1.1c-0.7,0.7-1.1,1.6-1.1,2.5v16.6c0,1,0.4,1.8,1,2.5
		c0.7,0.7,1.6,1.1,2.6,1.1h8.6c1,0,1.8-0.4,2.5-1.1c0.7-0.7,1.1-1.6,1.1-2.5v-16.6c0-1-0.4-1.8-1.1-2.5
		C278.6,255.4,277.7,255.1,276.8,255.1z M275.7,259.8v14.5h-6.6v-14.5H275.7z"/>
	<path class="st0" d="M307.1,45.2h-8.6c-1,0-1.8,0.4-2.5,1.1c-0.7,0.7-1.1,1.6-1.1,2.5v16.6c0,1,0.4,1.8,1,2.5
		c0.7,0.7,1.6,1.1,2.6,1.1h8.6c1,0,1.8-0.4,2.5-1.1s1.1-1.6,1.1-2.5V48.8c0-1-0.4-1.8-1.1-2.5C308.9,45.5,308.1,45.2,307.1,45.2z
		 M306.1,49.8v14.5h-6.6V49.8H306.1z"/>
	<path class="st0" d="M297.2,94.3c-0.6,0-1.2,0.2-1.6,0.7c-0.4,0.4-0.7,1-0.7,1.6s0.2,1.2,0.7,1.6c0.4,0.5,1,0.7,1.7,0.7h11.2
		c0.6,0,1.2-0.2,1.6-0.7c0.4-0.4,0.7-1,0.7-1.6v-7.1c0-0.6-0.2-1.2-0.7-1.6c-0.9-0.9-2.4-0.9-3.3,0c-0.4,0.4-0.7,1-0.7,1.6v4.8h-0.9
		V75.2h-7.9c-0.6,0-1.2,0.2-1.6,0.7c-0.4,0.4-0.7,1-0.7,1.6s0.2,1.2,0.7,1.6c0.4,0.4,1,0.7,1.6,0.7h3.2v14.5L297.2,94.3L297.2,94.3z
		"/>
	<path class="st0" d="M297.2,128.9h11.2c0.6,0,1.2-0.2,1.6-0.7c0.4-0.4,0.7-1,0.7-1.6v-7.1c0-0.6-0.2-1.2-0.7-1.6
		c-0.9-0.9-2.4-0.9-3.3,0c-0.4,0.4-0.7,1-0.7,1.6v4.8h-0.9v-19.1h-7.9c-0.6,0-1.2,0.2-1.6,0.7c-0.4,0.4-0.7,1-0.7,1.6
		s0.2,1.2,0.7,1.6c0.4,0.4,1,0.7,1.6,0.7h3.2v14.5h-3.3c-0.6,0-1.2,0.2-1.6,0.7c-0.4,0.4-0.7,1-0.7,1.6s0.2,1.2,0.7,1.6
		C295.9,128.7,296.5,128.9,297.2,128.9z"/>
	<path class="st0" d="M307.1,135.1h-8.6c-1,0-1.8,0.4-2.5,1.1c-0.7,0.7-1.1,1.6-1.1,2.5v16.6c0,1,0.4,1.8,1,2.5
		c0.7,0.7,1.6,1.1,2.6,1.1h8.6c1,0,1.8-0.4,2.5-1.1c0.7-0.7,1.1-1.6,1.1-2.5v-16.6c0-1-0.4-1.8-1.1-2.5
		C308.9,135.5,308.1,135.1,307.1,135.1z M306.1,139.8v14.4h-6.6v-14.4H306.1z"/>
	<path class="st0" d="M307.1,165.1h-8.6c-1,0-1.8,0.4-2.5,1.1c-0.7,0.7-1.1,1.6-1.1,2.5v16.6c0,1,0.4,1.8,1,2.5
		c0.7,0.7,1.6,1.1,2.6,1.1h8.6c1,0,1.8-0.4,2.5-1.1c0.7-0.7,1.1-1.6,1.1-2.5v-16.6c0-1-0.4-1.8-1.1-2.5
		C308.9,165.5,308.1,165.1,307.1,165.1z M306.1,169.8v14.4h-6.6v-14.4H306.1z"/>
	<path class="st0" d="M307.1,195.1h-8.6c-1,0-1.8,0.4-2.5,1.1c-0.7,0.7-1.1,1.6-1.1,2.5v16.6c0,1,0.4,1.8,1,2.5
		c0.7,0.7,1.6,1.1,2.6,1.1h8.6c1,0,1.8-0.4,2.5-1.1c0.7-0.7,1.1-1.6,1.1-2.5v-16.6c0-1-0.4-1.8-1.1-2.5
		C308.9,195.5,308.1,195.1,307.1,195.1z M306.1,199.8v14.4h-6.6v-14.4H306.1z"/>
	<path class="st0" d="M297.2,248.9h11.2c0.6,0,1.2-0.2,1.6-0.7c0.4-0.4,0.7-1,0.7-1.6v-7.1c0-0.6-0.2-1.2-0.7-1.6
		c-0.9-0.9-2.4-0.9-3.3,0c-0.4,0.4-0.7,1-0.7,1.6v4.8h-0.9v-19.1h-7.9c-0.6,0-1.2,0.2-1.6,0.7c-0.4,0.4-0.7,1-0.7,1.6
		c0,0.6,0.2,1.2,0.7,1.6c0.4,0.4,1,0.7,1.6,0.7h3.2v14.5h-3.3c-0.6,0-1.2,0.2-1.6,0.7c-0.4,0.4-0.7,1-0.7,1.6c0,0.6,0.2,1.2,0.7,1.6
		C295.9,248.6,296.5,248.9,297.2,248.9z"/>
	<path class="st0" d="M307.1,255.1h-8.6c-1,0-1.8,0.4-2.5,1.1c-0.7,0.7-1.1,1.6-1.1,2.5v16.6c0,1,0.4,1.8,1,2.5
		c0.7,0.7,1.6,1.1,2.6,1.1h8.6c1,0,1.8-0.4,2.5-1.1c0.7-0.7,1.1-1.6,1.1-2.5v-16.6c0-1-0.4-1.8-1.1-2.5
		C308.9,255.4,308.1,255.1,307.1,255.1z M306.1,259.8v14.5h-6.6v-14.5H306.1z"/>
	<path class="st0" d="M337.4,75.2h-8.6c-1,0-1.8,0.4-2.5,1.1c-0.7,0.7-1.1,1.6-1.1,2.5v16.6c0,1,0.4,1.8,1,2.5
		c0.7,0.7,1.6,1.1,2.6,1.1h8.6c1,0,1.8-0.4,2.5-1.1c0.7-0.7,1.1-1.6,1.1-2.5V78.8c0-1-0.4-1.8-1.1-2.5
		C339.2,75.5,338.4,75.2,337.4,75.2z M336.4,79.8v14.5h-6.6V79.8H336.4z"/>
	<path class="st0" d="M327.5,124.3c-0.6,0-1.2,0.2-1.6,0.7c-0.4,0.4-0.7,1-0.7,1.6s0.2,1.2,0.7,1.6c0.4,0.5,1,0.7,1.7,0.7h11.2
		c0.6,0,1.2-0.2,1.6-0.7c0.4-0.4,0.7-1,0.7-1.6v-7.1c0-0.6-0.2-1.2-0.7-1.6c-0.9-0.9-2.4-0.9-3.3,0c-0.4,0.4-0.7,1-0.7,1.6v4.8h-0.9
		v-19.1h-7.9c-0.6,0-1.2,0.2-1.6,0.7c-0.4,0.4-0.7,1-0.7,1.6c0,0.6,0.2,1.2,0.7,1.6c0.4,0.4,1,0.7,1.6,0.7h3.2v14.5
		C330.8,124.3,327.5,124.3,327.5,124.3z"/>
	<path class="st0" d="M327.5,158.9h11.2c0.6,0,1.2-0.2,1.6-0.7c0.4-0.4,0.7-1,0.7-1.6v-7.1c0-0.6-0.2-1.2-0.7-1.6
		c-0.9-0.9-2.4-0.9-3.3,0c-0.4,0.4-0.7,1-0.7,1.6v4.8h-0.9v-19.1h-7.9c-0.6,0-1.2,0.2-1.6,0.7c-0.4,0.4-0.7,1-0.7,1.6
		c0,0.6,0.2,1.2,0.7,1.6c0.4,0.4,1,0.7,1.6,0.7h3.2v14.4h-3.3c-0.6,0-1.2,0.2-1.6,0.7c-0.4,0.4-0.7,1-0.7,1.6c0,0.6,0.2,1.2,0.7,1.6
		C326.3,158.7,326.8,158.9,327.5,158.9z"/>
	<path class="st0" d="M327.5,188.9h11.2c0.6,0,1.2-0.2,1.6-0.7c0.4-0.4,0.7-1,0.7-1.6v-7.1c0-0.6-0.2-1.2-0.7-1.6
		c-0.9-0.9-2.4-0.9-3.3,0c-0.4,0.4-0.7,1-0.7,1.6v4.8h-0.9v-19.1h-7.9c-0.6,0-1.2,0.2-1.6,0.7c-0.4,0.4-0.7,1-0.7,1.6
		c0,0.6,0.2,1.2,0.7,1.6c0.4,0.4,1,0.7,1.6,0.7h3.2v14.4h-3.3c-0.6,0-1.2,0.2-1.6,0.7c-0.4,0.4-0.7,1-0.7,1.6c0,0.6,0.2,1.2,0.7,1.6
		C326.3,188.6,326.8,188.9,327.5,188.9z"/>
	<path class="st0" d="M337.4,195.1h-8.6c-1,0-1.8,0.4-2.5,1.1c-0.7,0.7-1.1,1.6-1.1,2.5v16.6c0,1,0.4,1.8,1,2.5
		c0.7,0.7,1.6,1.1,2.6,1.1h8.6c1,0,1.8-0.4,2.5-1.1c0.7-0.7,1.1-1.6,1.1-2.5v-16.6c0-1-0.4-1.8-1.1-2.5
		C339.2,195.5,338.4,195.1,337.4,195.1z M336.4,199.8v14.4h-6.6v-14.4H336.4z"/>
	<path class="st0" d="M327.5,248.9h11.2c0.6,0,1.2-0.2,1.6-0.7c0.4-0.4,0.7-1,0.7-1.6v-7.1c0-0.6-0.2-1.2-0.7-1.6
		c-0.9-0.9-2.4-0.9-3.3,0c-0.4,0.4-0.7,1-0.7,1.6v4.8h-0.9v-19.1h-7.9c-0.6,0-1.2,0.2-1.6,0.7c-0.4,0.4-0.7,1-0.7,1.6
		c0,0.6,0.2,1.2,0.7,1.6c0.4,0.4,1,0.7,1.6,0.7h3.2v14.5h-3.3c-0.6,0-1.2,0.2-1.6,0.7c-0.4,0.4-0.7,1-0.7,1.6c0,0.6,0.2,1.2,0.7,1.6
		C326.3,248.6,326.8,248.9,327.5,248.9z"/>
	<path class="st0" d="M337.4,255.1h-8.6c-1,0-1.8,0.4-2.5,1.1c-0.7,0.7-1.1,1.6-1.1,2.5v16.6c0,1,0.4,1.8,1,2.5
		c0.7,0.7,1.6,1.1,2.6,1.1h8.6c1,0,1.8-0.4,2.5-1.1c0.7-0.7,1.1-1.6,1.1-2.5v-16.6c0-1-0.4-1.8-1.1-2.5
		C339.2,255.4,338.4,255.1,337.4,255.1z M336.4,259.8v14.5h-6.6v-14.5H336.4z"/>
	<path class="st0" d="M337,297.7c-0.4,0.4-0.7,1-0.7,1.6v4.8h-0.9v-19.1h-7.9c-0.6,0-1.2,0.2-1.6,0.7c-0.4,0.4-0.7,1-0.7,1.6
		c0,0.6,0.2,1.2,0.7,1.6c0.4,0.4,1,0.7,1.6,0.7h3.2v14.5h-3.3c-0.6,0-1.2,0.2-1.6,0.7c-0.4,0.4-0.7,1-0.7,1.6s0.2,1.2,0.7,1.6
		c0.4,0.5,1,0.7,1.7,0.7h11.2c0.6,0,1.2-0.2,1.6-0.7c0.4-0.4,0.7-1,0.7-1.6v-7.1c0-0.6-0.2-1.2-0.7-1.6
		C339.4,296.8,337.9,296.8,337,297.7z"/>
	<path class="st0" d="M367.8,15.2h-8.6c-1,0-1.8,0.4-2.5,1.1c-0.7,0.7-1.1,1.6-1.1,2.5v16.6c0,1,0.4,1.8,1,2.5
		c0.7,0.7,1.6,1.1,2.6,1.1h8.6c1,0,1.8-0.4,2.5-1.1c0.7-0.7,1.1-1.6,1.1-2.5V18.8c0-1-0.4-1.8-1.1-2.5
		C369.6,15.5,368.7,15.2,367.8,15.2z M366.7,19.9v14.5h-6.6V19.9H366.7z"/>
	<path class="st0" d="M357.8,64.3c-0.6,0-1.2,0.2-1.6,0.7c-0.4,0.4-0.7,1-0.7,1.6s0.2,1.2,0.7,1.6c0.4,0.5,1,0.7,1.7,0.7H369
		c0.6,0,1.2-0.2,1.6-0.7c0.4-0.4,0.7-1,0.7-1.6v-7.1c0-0.6-0.2-1.2-0.7-1.6c-0.9-0.9-2.4-0.9-3.3,0c-0.4,0.4-0.7,1-0.7,1.6v4.8h-0.9
		V45.2h-7.9c-0.6,0-1.2,0.2-1.6,0.7c-0.4,0.4-0.7,1-0.7,1.6s0.2,1.2,0.7,1.6c0.4,0.4,1,0.7,1.6,0.7h3.2v14.5L357.8,64.3L357.8,64.3z
		"/>
	<path class="st0" d="M357.8,98.9H369c0.6,0,1.2-0.2,1.6-0.7c0.4-0.4,0.7-1,0.7-1.6v-7.1c0-0.6-0.2-1.2-0.7-1.6
		c-0.9-0.9-2.4-0.9-3.3,0c-0.4,0.4-0.7,1-0.7,1.6v4.8h-0.9V75.2h-7.9c-0.6,0-1.2,0.2-1.6,0.7c-0.4,0.4-0.7,1-0.7,1.6
		s0.2,1.2,0.7,1.6c0.4,0.4,1,0.7,1.6,0.7h3.2v14.5h-3.3c-0.6,0-1.2,0.2-1.6,0.7c-0.4,0.4-0.7,1-0.7,1.6s0.2,1.2,0.7,1.6
		C356.6,98.7,357.2,98.9,357.8,98.9z"/>
	<path class="st0" d="M357.8,128.9H369c0.6,0,1.2-0.2,1.6-0.7c0.4-0.4,0.7-1,0.7-1.6v-7.1c0-0.6-0.2-1.2-0.7-1.6
		c-0.9-0.9-2.4-0.9-3.3,0c-0.4,0.4-0.7,1-0.7,1.6v4.8h-0.9v-19.1h-7.9c-0.6,0-1.2,0.2-1.6,0.7c-0.4,0.4-0.7,1-0.7,1.6
		s0.2,1.2,0.7,1.6c0.4,0.4,1,0.7,1.6,0.7h3.2v14.5h-3.3c-0.6,0-1.2,0.2-1.6,0.7c-0.4,0.4-0.7,1-0.7,1.6s0.2,1.2,0.7,1.6
		C356.6,128.7,357.2,128.9,357.8,128.9z"/>
	<path class="st0" d="M367.8,135.1h-8.6c-1,0-1.8,0.4-2.5,1.1c-0.7,0.7-1.1,1.6-1.1,2.5v16.6c0,1,0.4,1.8,1,2.5
		c0.7,0.7,1.6,1.1,2.6,1.1h8.6c1,0,1.8-0.4,2.5-1.1c0.7-0.7,1.1-1.6,1.1-2.5v-16.6c0-1-0.4-1.8-1.1-2.5
		C369.6,135.5,368.7,135.1,367.8,135.1z M366.7,139.8v14.4h-6.6v-14.4H366.7z"/>
	<path class="st0" d="M367.8,165.1h-8.6c-1,0-1.8,0.4-2.5,1.1c-0.7,0.7-1.1,1.6-1.1,2.5v16.6c0,1,0.4,1.8,1,2.5
		c0.7,0.7,1.6,1.1,2.6,1.1h8.6c1,0,1.8-0.4,2.5-1.1c0.7-0.7,1.1-1.6,1.1-2.5v-16.6c0-1-0.4-1.8-1.1-2.5
		C369.6,165.5,368.7,165.1,367.8,165.1z M366.7,169.8v14.4h-6.6v-14.4H366.7z"/>
	<path class="st0" d="M357.8,218.9H369c0.6,0,1.2-0.2,1.6-0.7c0.4-0.4,0.7-1,0.7-1.6v-7.1c0-0.6-0.2-1.2-0.7-1.6
		c-0.9-0.9-2.4-0.9-3.3,0c-0.4,0.4-0.7,1-0.7,1.6v4.8h-0.9v-19.1h-7.9c-0.6,0-1.2,0.2-1.6,0.7c-0.4,0.4-0.7,1-0.7,1.6
		c0,0.6,0.2,1.2,0.7,1.6c0.4,0.4,1,0.7,1.6,0.7h3.2v14.4h-3.3c-0.6,0-1.2,0.2-1.6,0.7c-0.4,0.4-0.7,1-0.7,1.6c0,0.6,0.2,1.2,0.7,1.6
		C356.6,218.6,357.2,218.9,357.8,218.9z"/>
	<path class="st0" d="M367.8,225.1h-8.6c-1,0-1.8,0.4-2.5,1.1c-0.7,0.7-1.1,1.6-1.1,2.5v16.6c0,1,0.4,1.8,1,2.5
		c0.7,0.7,1.6,1.1,2.6,1.1h8.6c1,0,1.8-0.4,2.5-1.1c0.7-0.7,1.1-1.6,1.1-2.5v-16.6c0-1-0.4-1.8-1.1-2.5
		C369.6,225.5,368.7,225.1,367.8,225.1z M366.7,229.8v14.5h-6.6v-14.5H366.7z"/>
	<path class="st0" d="M398.1,75.2h-8.6c-1,0-1.8,0.4-2.5,1.1c-0.7,0.7-1.1,1.6-1.1,2.5v16.6c0,1,0.4,1.8,1,2.5
		c0.7,0.7,1.6,1.1,2.6,1.1h8.6c1,0,1.8-0.4,2.5-1.1c0.7-0.7,1.1-1.6,1.1-2.5V78.8c0-1-0.4-1.8-1.1-2.5
		C399.9,75.5,399.1,75.2,398.1,75.2z M397,79.8v14.5h-6.6V79.8H397z"/>
	<path class="st0" d="M388.1,124.3c-0.6,0-1.2,0.2-1.6,0.7c-0.4,0.4-0.7,1-0.7,1.6s0.2,1.2,0.7,1.6c0.4,0.5,1,0.7,1.7,0.7h11.2
		c0.6,0,1.2-0.2,1.6-0.7c0.4-0.4,0.7-1,0.7-1.6v-7.1c0-0.6-0.2-1.2-0.7-1.6c-0.9-0.9-2.4-0.9-3.3,0c-0.4,0.4-0.7,1-0.7,1.6v4.8h-0.9
		v-19.1h-7.9c-0.6,0-1.2,0.2-1.6,0.7c-0.4,0.4-0.7,1-0.7,1.6c0,0.6,0.2,1.2,0.7,1.6c0.4,0.4,1,0.7,1.6,0.7h3.2v14.5
		C391.4,124.3,388.1,124.3,388.1,124.3z"/>
	<path class="st0" d="M388.1,158.9h11.2c0.6,0,1.2-0.2,1.6-0.7c0.4-0.4,0.7-1,0.7-1.6v-7.1c0-0.6-0.2-1.2-0.7-1.6
		c-0.9-0.9-2.4-0.9-3.3,0c-0.4,0.4-0.7,1-0.7,1.6v4.8h-0.9v-19.1h-7.9c-0.6,0-1.2,0.2-1.6,0.7c-0.4,0.4-0.7,1-0.7,1.6
		c0,0.6,0.2,1.2,0.7,1.6c0.4,0.4,1,0.7,1.6,0.7h3.2v14.4h-3.3c-0.6,0-1.2,0.2-1.6,0.7c-0.4,0.4-0.7,1-0.7,1.6c0,0.6,0.2,1.2,0.7,1.6
		C386.9,158.7,387.5,158.9,388.1,158.9z"/>
	<path class="st0" d="M398.1,165.1h-8.6c-1,0-1.8,0.4-2.5,1.1c-0.7,0.7-1.1,1.6-1.1,2.5v16.6c0,1,0.4,1.8,1,2.5
		c0.7,0.7,1.6,1.1,2.6,1.1h8.6c1,0,1.8-0.4,2.5-1.1c0.7-0.7,1.1-1.6,1.1-2.5v-16.6c0-1-0.4-1.8-1.1-2.5
		C399.9,165.5,399.1,165.1,398.1,165.1z M397,169.8v14.4h-6.6v-14.4H397z"/>
	<path class="st0" d="M398.1,195.1h-8.6c-1,0-1.8,0.4-2.5,1.1c-0.7,0.7-1.1,1.6-1.1,2.5v16.6c0,1,0.4,1.8,1,2.5
		c0.7,0.7,1.6,1.1,2.6,1.1h8.6c1,0,1.8-0.4,2.5-1.1c0.7-0.7,1.1-1.6,1.1-2.5v-16.6c0-1-0.4-1.8-1.1-2.5
		C399.9,195.5,399.1,195.1,398.1,195.1z M397,199.8v14.4h-6.6v-14.4H397z"/>
	<path class="st0" d="M388.1,248.9h11.2c0.6,0,1.2-0.2,1.6-0.7c0.4-0.4,0.7-1,0.7-1.6v-7.1c0-0.6-0.2-1.2-0.7-1.6
		c-0.9-0.9-2.4-0.9-3.3,0c-0.4,0.4-0.7,1-0.7,1.6v4.8h-0.9v-19.1h-7.9c-0.6,0-1.2,0.2-1.6,0.7c-0.4,0.4-0.7,1-0.7,1.6
		c0,0.6,0.2,1.2,0.7,1.6c0.4,0.4,1,0.7,1.6,0.7h3.2v14.5h-3.3c-0.6,0-1.2,0.2-1.6,0.7c-0.4,0.4-0.7,1-0.7,1.6c0,0.6,0.2,1.2,0.7,1.6
		C386.9,248.6,387.5,248.9,388.1,248.9z"/>
	<path class="st0" d="M398.1,255.1h-8.6c-1,0-1.8,0.4-2.5,1.1c-0.7,0.7-1.1,1.6-1.1,2.5v16.6c0,1,0.4,1.8,1,2.5
		c0.7,0.7,1.6,1.1,2.6,1.1h8.6c1,0,1.8-0.4,2.5-1.1c0.7-0.7,1.1-1.6,1.1-2.5v-16.6c0-1-0.4-1.8-1.1-2.5
		C399.9,255.4,399.1,255.1,398.1,255.1z M397,259.8v14.5h-6.6v-14.5H397z"/>
	<path class="st0" d="M398.1,285.1h-8.6c-1,0-1.8,0.4-2.5,1.1c-0.7,0.7-1.1,1.6-1.1,2.5v16.6c0,1,0.4,1.8,1,2.5
		c0.7,0.7,1.6,1.1,2.6,1.1h8.6c1,0,1.8-0.4,2.5-1.1s1.1-1.6,1.1-2.5v-16.6c0-1-0.4-1.8-1.1-2.5C399.9,285.4,399.1,285.1,398.1,285.1
		z M397,289.7v14.5h-6.6v-14.5H397z"/>
	<path class="st0" d="M428.4,15.2h-8.6c-1,0-1.8,0.4-2.5,1.1c-0.7,0.7-1.1,1.6-1.1,2.5v16.6c0,1,0.4,1.8,1,2.5
		c0.7,0.7,1.6,1.1,2.6,1.1h8.6c1,0,1.8-0.4,2.5-1.1c0.7-0.7,1.1-1.6,1.1-2.5V18.8c0-1-0.4-1.8-1.1-2.5
		C430.2,15.5,429.4,15.2,428.4,15.2z M427.4,19.9v14.5h-6.6V19.9H427.4z"/>
	<path class="st0" d="M418.5,64.3c-0.6,0-1.2,0.2-1.6,0.7c-0.4,0.4-0.7,1-0.7,1.6s0.2,1.2,0.7,1.6c0.4,0.5,1,0.7,1.7,0.7h11.2
		c0.6,0,1.2-0.2,1.6-0.7c0.4-0.4,0.7-1,0.7-1.6v-7.1c0-0.6-0.2-1.2-0.7-1.6c-0.9-0.9-2.4-0.9-3.3,0c-0.4,0.4-0.7,1-0.7,1.6v4.8h-0.9
		V45.2h-7.9c-0.6,0-1.2,0.2-1.6,0.7c-0.4,0.4-0.7,1-0.7,1.6s0.2,1.2,0.7,1.6c0.4,0.4,1,0.7,1.6,0.7h3.2v14.5L418.5,64.3L418.5,64.3z
		"/>
	<path class="st0" d="M418.5,98.9h11.2c0.6,0,1.2-0.2,1.6-0.7c0.4-0.4,0.7-1,0.7-1.6v-7.1c0-0.6-0.2-1.2-0.7-1.6
		c-0.9-0.9-2.4-0.9-3.3,0c-0.4,0.4-0.7,1-0.7,1.6v4.8h-0.9V75.2h-7.9c-0.6,0-1.2,0.2-1.6,0.7c-0.4,0.4-0.7,1-0.7,1.6
		s0.2,1.2,0.7,1.6c0.4,0.4,1,0.7,1.6,0.7h3.2v14.5h-3.3c-0.6,0-1.2,0.2-1.6,0.7c-0.4,0.4-0.7,1-0.7,1.6s0.2,1.2,0.7,1.6
		C417.3,98.7,417.8,98.9,418.5,98.9z"/>
	<path class="st0" d="M428.4,105.1h-8.6c-1,0-1.8,0.4-2.5,1.1c-0.7,0.7-1.1,1.6-1.1,2.5v16.6c0,1,0.4,1.8,1,2.5
		c0.7,0.7,1.6,1.1,2.6,1.1h8.6c1,0,1.8-0.4,2.5-1.1c0.7-0.7,1.1-1.6,1.1-2.5v-16.6c0-1-0.4-1.8-1.1-2.5
		C430.2,105.5,429.4,105.1,428.4,105.1z M427.4,109.8v14.5h-6.6v-14.5H427.4z"/>
	<path class="st0" d="M428.4,135.1h-8.6c-1,0-1.8,0.4-2.5,1.1c-0.7,0.7-1.1,1.6-1.1,2.5v16.6c0,1,0.4,1.8,1,2.5
		c0.7,0.7,1.6,1.1,2.6,1.1h8.6c1,0,1.8-0.4,2.5-1.1c0.7-0.7,1.1-1.6,1.1-2.5v-16.6c0-1-0.4-1.8-1.1-2.5
		C430.2,135.5,429.4,135.1,428.4,135.1z M427.4,139.8v14.4h-6.6v-14.4H427.4z"/>
	<path class="st0" d="M428.4,165.1h-8.6c-1,0-1.8,0.4-2.5,1.1c-0.7,0.7-1.1,1.6-1.1,2.5v16.6c0,1,0.4,1.8,1,2.5
		c0.7,0.7,1.6,1.1,2.6,1.1h8.6c1,0,1.8-0.4,2.5-1.1c0.7-0.7,1.1-1.6,1.1-2.5v-16.6c0-1-0.4-1.8-1.1-2.5
		C430.2,165.5,429.4,165.1,428.4,165.1z M427.4,169.8v14.4h-6.6v-14.4H427.4z"/>
	<path class="st0" d="M428.4,195.1h-8.6c-1,0-1.8,0.4-2.5,1.1c-0.7,0.7-1.1,1.6-1.1,2.5v16.6c0,1,0.4,1.8,1,2.5
		c0.7,0.7,1.6,1.1,2.6,1.1h8.6c1,0,1.8-0.4,2.5-1.1c0.7-0.7,1.1-1.6,1.1-2.5v-16.6c0-1-0.4-1.8-1.1-2.5
		C430.2,195.5,429.4,195.1,428.4,195.1z M427.4,199.8v14.4h-6.6v-14.4H427.4z"/>
	<path class="st0" d="M428,237.8c-0.4,0.4-0.7,1-0.7,1.6v4.8h-0.9v-19.1h-7.9c-0.6,0-1.2,0.2-1.6,0.7c-0.4,0.4-0.7,1-0.7,1.6
		c0,0.6,0.2,1.2,0.7,1.6c0.4,0.4,1,0.7,1.6,0.7h3.2v14.4h-3.3c-0.6,0-1.2,0.2-1.6,0.7c-0.4,0.4-0.7,1-0.7,1.6c0,0.6,0.2,1.2,0.7,1.6
		c0.4,0.5,1,0.7,1.7,0.7h11.2c0.6,0,1.2-0.2,1.6-0.7c0.4-0.4,0.7-1,0.7-1.6v-7.1c0-0.6-0.2-1.2-0.7-1.6
		C430.4,236.9,428.9,236.9,428,237.8z"/>
	<path class="st0" d="M458.7,15.2h-8.6c-1,0-1.8,0.4-2.5,1.1c-0.7,0.7-1.1,1.6-1.1,2.5v16.6c0,1,0.4,1.8,1,2.5
		c0.7,0.7,1.6,1.1,2.6,1.1h8.6c1,0,1.8-0.4,2.5-1.1c0.7-0.7,1.1-1.6,1.1-2.5V18.8c0-1-0.4-1.8-1.1-2.5
		C460.6,15.5,459.7,15.2,458.7,15.2z M457.7,19.9v14.5h-6.6V19.9H457.7z"/>
	<path class="st0" d="M458.7,45.2h-8.6c-1,0-1.8,0.4-2.5,1.1c-0.7,0.7-1.1,1.6-1.1,2.5v16.6c0,1,0.4,1.8,1,2.5
		c0.7,0.7,1.6,1.1,2.6,1.1h8.6c1,0,1.8-0.4,2.5-1.1s1.1-1.6,1.1-2.5V48.8c0-1-0.4-1.8-1.1-2.5C460.6,45.5,459.7,45.2,458.7,45.2z
		 M457.7,49.8v14.5h-6.6V49.8H457.7z"/>
	<path class="st0" d="M448.8,94.3c-0.6,0-1.2,0.2-1.6,0.7c-0.4,0.4-0.7,1-0.7,1.6s0.2,1.2,0.7,1.6c0.4,0.5,1,0.7,1.7,0.7H460
		c0.6,0,1.2-0.2,1.6-0.7c0.4-0.4,0.7-1,0.7-1.6v-7.1c0-0.6-0.2-1.2-0.7-1.6c-0.9-0.9-2.4-0.9-3.3,0c-0.4,0.4-0.7,1-0.7,1.6v4.8h-0.9
		V75.2h-7.9c-0.6,0-1.2,0.2-1.6,0.7c-0.4,0.4-0.7,1-0.7,1.6s0.2,1.2,0.7,1.6c0.4,0.4,1,0.7,1.6,0.7h3.2v14.5L448.8,94.3L448.8,94.3z
		"/>
	<path class="st0" d="M458.7,105.1h-8.6c-1,0-1.8,0.4-2.5,1.1c-0.7,0.7-1.1,1.6-1.1,2.5v16.6c0,1,0.4,1.8,1,2.5
		c0.7,0.7,1.6,1.1,2.6,1.1h8.6c1,0,1.8-0.4,2.5-1.1c0.7-0.7,1.1-1.6,1.1-2.5v-16.6c0-1-0.4-1.8-1.1-2.5
		C460.6,105.5,459.7,105.1,458.7,105.1z M457.7,109.8v14.5h-6.6v-14.5H457.7z"/>
	<path class="st0" d="M448.8,158.9H460c0.6,0,1.2-0.2,1.6-0.7c0.4-0.4,0.7-1,0.7-1.6v-7.1c0-0.6-0.2-1.2-0.7-1.6
		c-0.9-0.9-2.4-0.9-3.3,0c-0.4,0.4-0.7,1-0.7,1.6v4.8h-0.9v-19.1h-7.9c-0.6,0-1.2,0.2-1.6,0.7c-0.4,0.4-0.7,1-0.7,1.6
		c0,0.6,0.2,1.2,0.7,1.6c0.4,0.4,1,0.7,1.6,0.7h3.2v14.4h-3.3c-0.6,0-1.2,0.2-1.6,0.7c-0.4,0.4-0.7,1-0.7,1.6c0,0.6,0.2,1.2,0.7,1.6
		C447.6,158.7,448.2,158.9,448.8,158.9z"/>
	<path class="st0" d="M448.8,188.9H460c0.6,0,1.2-0.2,1.6-0.7c0.4-0.4,0.7-1,0.7-1.6v-7.1c0-0.6-0.2-1.2-0.7-1.6
		c-0.9-0.9-2.4-0.9-3.3,0c-0.4,0.4-0.7,1-0.7,1.6v4.8h-0.9v-19.1h-7.9c-0.6,0-1.2,0.2-1.6,0.7c-0.4,0.4-0.7,1-0.7,1.6
		c0,0.6,0.2,1.2,0.7,1.6c0.4,0.4,1,0.7,1.6,0.7h3.2v14.4h-3.3c-0.6,0-1.2,0.2-1.6,0.7c-0.4,0.4-0.7,1-0.7,1.6c0,0.6,0.2,1.2,0.7,1.6
		C447.6,188.6,448.2,188.9,448.8,188.9z"/>
	<path class="st0" d="M448.8,218.9H460c0.6,0,1.2-0.2,1.6-0.7c0.4-0.4,0.7-1,0.7-1.6v-7.1c0-0.6-0.2-1.2-0.7-1.6
		c-0.9-0.9-2.4-0.9-3.3,0c-0.4,0.4-0.7,1-0.7,1.6v4.8h-0.9v-19.1h-7.9c-0.6,0-1.2,0.2-1.6,0.7c-0.4,0.4-0.7,1-0.7,1.6
		c0,0.6,0.2,1.2,0.7,1.6c0.4,0.4,1,0.7,1.6,0.7h3.2v14.4h-3.3c-0.6,0-1.2,0.2-1.6,0.7c-0.4,0.4-0.7,1-0.7,1.6c0,0.6,0.2,1.2,0.7,1.6
		C447.6,218.6,448.2,218.9,448.8,218.9z"/>
	<path class="st0" d="M458.7,225.1h-8.6c-1,0-1.8,0.4-2.5,1.1c-0.7,0.7-1.1,1.6-1.1,2.5v16.6c0,1,0.4,1.8,1,2.5
		c0.7,0.7,1.6,1.1,2.6,1.1h8.6c1,0,1.8-0.4,2.5-1.1s1.1-1.6,1.1-2.5v-16.6c0-1-0.4-1.8-1.1-2.5C460.6,225.5,459.7,225.1,458.7,225.1
		z M457.7,229.8v14.5h-6.6v-14.5H457.7z"/>
	<path class="st0" d="M489.1,75.2h-8.6c-1,0-1.8,0.4-2.5,1.1c-0.7,0.7-1.1,1.6-1.1,2.5v16.6c0,1,0.4,1.8,1,2.5
		c0.7,0.7,1.6,1.1,2.6,1.1h8.6c1,0,1.8-0.4,2.5-1.1c0.7-0.7,1.1-1.6,1.1-2.5V78.8c0-1-0.4-1.8-1.1-2.5
		C490.9,75.5,490,75.2,489.1,75.2z M488,79.8v14.5h-6.6V79.8H488z"/>
	<path class="st0" d="M479.1,124.3c-0.6,0-1.2,0.2-1.6,0.7c-0.4,0.4-0.7,1-0.7,1.6s0.2,1.2,0.7,1.6c0.4,0.5,1,0.7,1.7,0.7h11.2
		c0.6,0,1.2-0.2,1.6-0.7c0.4-0.4,0.7-1,0.7-1.6v-7.1c0-0.6-0.2-1.2-0.7-1.6c-0.9-0.9-2.4-0.9-3.3,0c-0.4,0.4-0.7,1-0.7,1.6v4.8h-0.9
		v-19.1h-7.9c-0.6,0-1.2,0.2-1.6,0.7c-0.4,0.4-0.7,1-0.7,1.6c0,0.6,0.2,1.2,0.7,1.6c0.4,0.4,1,0.7,1.6,0.7h3.2v14.5
		C482.4,124.3,479.1,124.3,479.1,124.3z"/>
	<path class="st0" d="M479.1,158.9h11.2c0.6,0,1.2-0.2,1.6-0.7c0.4-0.4,0.7-1,0.7-1.6v-7.1c0-0.6-0.2-1.2-0.7-1.6
		c-0.9-0.9-2.4-0.9-3.3,0c-0.4,0.4-0.7,1-0.7,1.6v4.8h-0.9v-19.1h-7.9c-0.6,0-1.2,0.2-1.6,0.7c-0.4,0.4-0.7,1-0.7,1.6
		c0,0.6,0.2,1.2,0.7,1.6c0.4,0.4,1,0.7,1.6,0.7h3.2v14.4h-3.3c-0.6,0-1.2,0.2-1.6,0.7c-0.4,0.4-0.7,1-0.7,1.6c0,0.6,0.2,1.2,0.7,1.6
		C477.9,158.7,478.5,158.9,479.1,158.9z"/>
	<path class="st0" d="M489.1,165.1h-8.6c-1,0-1.8,0.4-2.5,1.1c-0.7,0.7-1.1,1.6-1.1,2.5v16.6c0,1,0.4,1.8,1,2.5
		c0.7,0.7,1.6,1.1,2.6,1.1h8.6c1,0,1.8-0.4,2.5-1.1c0.7-0.7,1.1-1.6,1.1-2.5v-16.6c0-1-0.4-1.8-1.1-2.5
		C490.9,165.5,490,165.1,489.1,165.1z M488,169.8v14.4h-6.6v-14.4H488z"/>
	<path class="st0" d="M489.1,195.1h-8.6c-1,0-1.8,0.4-2.5,1.1c-0.7,0.7-1.1,1.6-1.1,2.5v16.6c0,1,0.4,1.8,1,2.5
		c0.7,0.7,1.6,1.1,2.6,1.1h8.6c1,0,1.8-0.4,2.5-1.1c0.7-0.7,1.1-1.6,1.1-2.5v-16.6c0-1-0.4-1.8-1.1-2.5
		C490.9,195.5,490,195.1,489.1,195.1z M488,199.8v14.4h-6.6v-14.4H488z"/>
	<path class="st0" d="M489.1,225.1h-8.6c-1,0-1.8,0.4-2.5,1.1c-0.7,0.7-1.1,1.6-1.1,2.5v16.6c0,1,0.4,1.8,1,2.5
		c0.7,0.7,1.6,1.1,2.6,1.1h8.6c1,0,1.8-0.4,2.5-1.1c0.7-0.7,1.1-1.6,1.1-2.5v-16.6c0-1-0.4-1.8-1.1-2.5
		C490.9,225.5,490,225.1,489.1,225.1z M488,229.8v14.5h-6.6v-14.5H488z"/>
	<path class="st0" d="M488.6,267.7c-0.4,0.4-0.7,1-0.7,1.6v4.8h-0.9v-19.1h-7.9c-0.6,0-1.2,0.2-1.6,0.7c-0.4,0.4-0.7,1-0.7,1.6
		s0.2,1.2,0.7,1.6c0.4,0.4,1,0.7,1.6,0.7h3.2v14.5h-3.3c-0.6,0-1.2,0.2-1.6,0.7c-0.4,0.4-0.7,1-0.7,1.6s0.2,1.2,0.7,1.6
		c0.4,0.5,1,0.7,1.7,0.7h11.2c0.6,0,1.2-0.2,1.6-0.7c0.4-0.4,0.7-1,0.7-1.6v-7.1c0-0.6-0.2-1.2-0.7-1.6
		C491,266.8,489.5,266.8,488.6,267.7z"/>
	<path class="st0" d="M488.6,297.7c-0.4,0.4-0.7,1-0.7,1.6v4.8h-0.9v-19.1h-7.9c-0.6,0-1.2,0.2-1.6,0.7s-0.7,1-0.7,1.6
		c0,0.6,0.2,1.2,0.7,1.6s1,0.7,1.6,0.7h3.2v14.5h-3.3c-0.6,0-1.2,0.2-1.6,0.7c-0.4,0.4-0.7,1-0.7,1.6s0.2,1.2,0.7,1.6
		c0.4,0.5,1,0.7,1.7,0.7h11.2c0.6,0,1.2-0.2,1.6-0.7s0.7-1,0.7-1.6v-7.1c0-0.6-0.2-1.2-0.7-1.6C491,296.8,489.5,296.8,488.6,297.7z"
		/>
	<path class="st0" d="M519.4,45.2h-8.6c-1,0-1.8,0.4-2.5,1.1c-0.7,0.7-1.1,1.6-1.1,2.5v16.6c0,1,0.4,1.8,1,2.5
		c0.7,0.7,1.6,1.1,2.6,1.1h8.6c1,0,1.8-0.4,2.5-1.1s1.1-1.6,1.1-2.5V48.8c0-1-0.4-1.8-1.1-2.5C521.2,45.5,520.4,45.2,519.4,45.2z
		 M518.4,49.8v14.5h-6.6V49.8H518.4z"/>
	<path class="st0" d="M509.4,94.3c-0.6,0-1.2,0.2-1.6,0.7c-0.4,0.4-0.7,1-0.7,1.6s0.2,1.2,0.7,1.6c0.4,0.5,1,0.7,1.7,0.7h11.2
		c0.6,0,1.2-0.2,1.6-0.7c0.4-0.4,0.7-1,0.7-1.6v-7.1c0-0.6-0.2-1.2-0.7-1.6c-0.9-0.9-2.4-0.9-3.3,0c-0.4,0.4-0.7,1-0.7,1.6v4.8h-0.9
		V75.2h-7.9c-0.6,0-1.2,0.2-1.6,0.7c-0.4,0.4-0.7,1-0.7,1.6s0.2,1.2,0.7,1.6c0.4,0.4,1,0.7,1.6,0.7h3.2v14.5L509.4,94.3L509.4,94.3z
		"/>
	<path class="st0" d="M509.4,128.9h11.2c0.6,0,1.2-0.2,1.6-0.7c0.4-0.4,0.7-1,0.7-1.6v-7.1c0-0.6-0.2-1.2-0.7-1.6
		c-0.9-0.9-2.4-0.9-3.3,0c-0.4,0.4-0.7,1-0.7,1.6v4.8h-0.9v-19.1h-7.9c-0.6,0-1.2,0.2-1.6,0.7c-0.4,0.4-0.7,1-0.7,1.6
		s0.2,1.2,0.7,1.6c0.4,0.4,1,0.7,1.6,0.7h3.2v14.5h-3.3c-0.6,0-1.2,0.2-1.6,0.7c-0.4,0.4-0.7,1-0.7,1.6s0.2,1.2,0.7,1.6
		C508.2,128.7,508.8,128.9,509.4,128.9z"/>
	<path class="st0" d="M519.4,135.1h-8.6c-1,0-1.8,0.4-2.5,1.1c-0.7,0.7-1.1,1.6-1.1,2.5v16.6c0,1,0.4,1.8,1,2.5
		c0.7,0.7,1.6,1.1,2.6,1.1h8.6c1,0,1.8-0.4,2.5-1.1c0.7-0.7,1.1-1.6,1.1-2.5v-16.6c0-1-0.4-1.8-1.1-2.5
		C521.2,135.5,520.4,135.1,519.4,135.1z M518.4,139.8v14.4h-6.6v-14.4H518.4z"/>
	<path class="st0" d="M519,177.8c-0.4,0.4-0.7,1-0.7,1.6v4.8h-0.9v-19.1h-7.9c-0.6,0-1.2,0.2-1.6,0.7c-0.4,0.4-0.7,1-0.7,1.6
		c0,0.6,0.2,1.2,0.7,1.6c0.4,0.4,1,0.7,1.6,0.7h3.2v14.4h-3.3c-0.6,0-1.2,0.2-1.6,0.7c-0.4,0.4-0.7,1-0.7,1.6c0,0.6,0.2,1.2,0.7,1.6
		c0.4,0.5,1,0.7,1.7,0.7h11.2c0.6,0,1.2-0.2,1.6-0.7c0.4-0.4,0.7-1,0.7-1.6v-7.1c0-0.6-0.2-1.2-0.7-1.6
		C521.4,176.9,519.9,176.9,519,177.8z"/>
	<path class="st0" d="M519,207.8c-0.4,0.4-0.7,1-0.7,1.6v4.8h-0.9v-19.1h-7.9c-0.6,0-1.2,0.2-1.6,0.7c-0.4,0.4-0.7,1-0.7,1.6
		c0,0.6,0.2,1.2,0.7,1.6c0.4,0.4,1,0.7,1.6,0.7h3.2v14.4h-3.3c-0.6,0-1.2,0.2-1.6,0.7c-0.4,0.4-0.7,1-0.7,1.6c0,0.6,0.2,1.2,0.7,1.6
		c0.4,0.5,1,0.7,1.7,0.7h11.2c0.6,0,1.2-0.2,1.6-0.7c0.4-0.4,0.7-1,0.7-1.6v-7.1c0-0.6-0.2-1.2-0.7-1.6
		C521.4,206.9,519.9,206.9,519,207.8z"/>
	<path class="st0" d="M519,237.8c-0.4,0.4-0.7,1-0.7,1.6v4.8h-0.9v-19.1h-7.9c-0.6,0-1.2,0.2-1.6,0.7c-0.4,0.4-0.7,1-0.7,1.6
		c0,0.6,0.2,1.2,0.7,1.6c0.4,0.4,1,0.7,1.6,0.7h3.2v14.4h-3.3c-0.6,0-1.2,0.2-1.6,0.7c-0.4,0.4-0.7,1-0.7,1.6c0,0.6,0.2,1.2,0.7,1.6
		c0.4,0.5,1,0.7,1.7,0.7h11.2c0.6,0,1.2-0.2,1.6-0.7c0.4-0.4,0.7-1,0.7-1.6v-7.1c0-0.6-0.2-1.2-0.7-1.6
		C521.4,236.9,519.9,236.9,519,237.8z"/>
	<path class="st0" d="M519,267.7c-0.4,0.4-0.7,1-0.7,1.6v4.8h-0.9v-19.1h-7.9c-0.6,0-1.2,0.2-1.6,0.7c-0.4,0.4-0.7,1-0.7,1.6
		s0.2,1.2,0.7,1.6c0.4,0.4,1,0.7,1.6,0.7h3.2v14.5h-3.3c-0.6,0-1.2,0.2-1.6,0.7c-0.4,0.4-0.7,1-0.7,1.6s0.2,1.2,0.7,1.6
		c0.4,0.5,1,0.7,1.7,0.7h11.2c0.6,0,1.2-0.2,1.6-0.7c0.4-0.4,0.7-1,0.7-1.6v-7.1c0-0.6-0.2-1.2-0.7-1.6
		C521.4,266.8,519.9,266.8,519,267.7z"/>
	<path class="st0" d="M552.2,76.2c-0.7-0.7-1.5-1.1-2.5-1.1h-8.6c-1,0-1.8,0.4-2.5,1.1c-0.7,0.7-1.1,1.6-1.1,2.5v16.6
		c0,1,0.4,1.8,1,2.5c0.7,0.7,1.6,1.1,2.6,1.1h8.6c1,0,1.8-0.4,2.5-1.1c0.7-0.7,1.1-1.6,1.1-2.5V78.8
		C553.3,77.8,552.9,76.9,552.2,76.2z M548.7,79.8v14.5h-6.6V79.8H548.7z"/>
	<path class="st0" d="M539.8,124.3c-0.6,0-1.2,0.2-1.6,0.7c-0.4,0.4-0.7,1-0.7,1.6s0.2,1.2,0.7,1.6c0.4,0.5,1,0.7,1.7,0.7h11.2
		c0.6,0,1.2-0.2,1.6-0.7c0.4-0.4,0.7-1,0.7-1.6v-7.1c0-0.6-0.2-1.2-0.7-1.6c-0.9-0.9-2.4-0.9-3.3,0c-0.4,0.4-0.7,1-0.7,1.6v4.8h-0.9
		v-19.1h-7.9c-0.6,0-1.2,0.2-1.6,0.7c-0.4,0.4-0.7,1-0.7,1.6c0,0.6,0.2,1.2,0.7,1.6c0.4,0.4,1,0.7,1.6,0.7h3.2v14.5
		C543.1,124.3,539.8,124.3,539.8,124.3z"/>
	<path class="st0" d="M539.8,158.9h11.2c0.6,0,1.2-0.2,1.6-0.7c0.4-0.4,0.7-1,0.7-1.6v-7.1c0-0.6-0.2-1.2-0.7-1.6
		c-0.9-0.9-2.4-0.9-3.3,0c-0.4,0.4-0.7,1-0.7,1.6v4.8h-0.9v-19.1h-7.9c-0.6,0-1.2,0.2-1.6,0.7c-0.4,0.4-0.7,1-0.7,1.6
		c0,0.6,0.2,1.2,0.7,1.6c0.4,0.4,1,0.7,1.6,0.7h3.2v14.4h-3.3c-0.6,0-1.2,0.2-1.6,0.7c-0.4,0.4-0.7,1-0.7,1.6c0,0.6,0.2,1.2,0.7,1.6
		C538.6,158.7,539.1,158.9,539.8,158.9z"/>
	<path class="st0" d="M549.7,165.1h-8.6c-1,0-1.8,0.4-2.5,1.1c-0.7,0.7-1.1,1.6-1.1,2.5v16.6c0,1,0.4,1.8,1,2.5
		c0.7,0.7,1.6,1.1,2.6,1.1h8.6c1,0,1.8-0.4,2.5-1.1c0.7-0.7,1.1-1.6,1.1-2.5v-16.6c0-1-0.4-1.8-1.1-2.5
		C551.5,165.5,550.7,165.1,549.7,165.1z M548.7,169.8v14.4h-6.6v-14.4H548.7z"/>
	<path class="st0" d="M539.8,218.9h11.2c0.6,0,1.2-0.2,1.6-0.7c0.4-0.4,0.7-1,0.7-1.6v-7.1c0-0.6-0.2-1.2-0.7-1.6
		c-0.9-0.9-2.4-0.9-3.3,0c-0.4,0.4-0.7,1-0.7,1.6v4.8h-0.9v-19.1h-7.9c-0.6,0-1.2,0.2-1.6,0.7c-0.4,0.4-0.7,1-0.7,1.6
		c0,0.6,0.2,1.2,0.7,1.6c0.4,0.4,1,0.7,1.6,0.7h3.2v14.4h-3.3c-0.6,0-1.2,0.2-1.6,0.7c-0.4,0.4-0.7,1-0.7,1.6c0,0.6,0.2,1.2,0.7,1.6
		C538.6,218.6,539.1,218.9,539.8,218.9z"/>
	<path class="st0" d="M539.8,248.9h11.2c0.6,0,1.2-0.2,1.6-0.7c0.4-0.4,0.7-1,0.7-1.6v-7.1c0-0.6-0.2-1.2-0.7-1.6
		c-0.9-0.9-2.4-0.9-3.3,0c-0.4,0.4-0.7,1-0.7,1.6v4.8h-0.9v-19.1h-7.9c-0.6,0-1.2,0.2-1.6,0.7c-0.4,0.4-0.7,1-0.7,1.6
		c0,0.6,0.2,1.2,0.7,1.6c0.4,0.4,1,0.7,1.6,0.7h3.2v14.5h-3.3c-0.6,0-1.2,0.2-1.6,0.7c-0.4,0.4-0.7,1-0.7,1.6c0,0.6,0.2,1.2,0.7,1.6
		C538.6,248.6,539.1,248.9,539.8,248.9z"/>
	<path class="st0" d="M549.7,255.1h-8.6c-1,0-1.8,0.4-2.5,1.1c-0.7,0.7-1.1,1.6-1.1,2.5v16.6c0,1,0.4,1.8,1,2.5
		c0.7,0.7,1.6,1.1,2.6,1.1h8.6c1,0,1.8-0.4,2.5-1.1c0.7-0.7,1.1-1.6,1.1-2.5v-16.6c0-1-0.4-1.8-1.1-2.5
		C551.5,255.4,550.7,255.1,549.7,255.1z M548.7,259.8v14.5h-6.6v-14.5H548.7z"/>
	<path class="st0" d="M549.3,297.7c-0.4,0.4-0.7,1-0.7,1.6v4.8h-0.9v-19.1h-7.9c-0.6,0-1.2,0.2-1.6,0.7c-0.4,0.4-0.7,1-0.7,1.6
		c0,0.6,0.2,1.2,0.7,1.6c0.4,0.4,1,0.7,1.6,0.7h3.2v14.5h-3.3c-0.6,0-1.2,0.2-1.6,0.7c-0.4,0.4-0.7,1-0.7,1.6s0.2,1.2,0.7,1.6
		c0.4,0.5,1,0.7,1.7,0.7h11.2c0.6,0,1.2-0.2,1.6-0.7c0.4-0.4,0.7-1,0.7-1.6v-7.1c0-0.6-0.2-1.2-0.7-1.6
		C551.7,296.8,550.2,296.8,549.3,297.7z"/>
</g>
<g>
	<path d="M27.3,189.9v-55.6h28.8c5.2,0,9.3,1.2,12.4,3.6c3.5,2.7,5.3,6.4,5.3,11c0,5.1-2.3,8.6-6.9,10.7v0.2c3,1,5.4,2.7,7,5.1
		c1.7,2.4,2.5,5.2,2.5,8.3c0,5.9-2.1,10.3-6.4,13.3c-3.4,2.3-7.9,3.5-13.5,3.5H27.3z M43.3,155.9h10.1c1.6,0,2.9-0.4,3.8-1.1
		c0.9-0.8,1.4-1.9,1.4-3.3c0-1.4-0.5-2.5-1.5-3.3c-1-0.8-2.3-1.2-3.8-1.2h-10V155.9z M43.3,177.1h11.6c1.8,0,3.2-0.5,4.3-1.5
		c1.1-1,1.6-2.3,1.6-4c0-1.7-0.6-3-1.7-4c-1.1-0.9-2.6-1.4-4.3-1.4H43.3V177.1z"/>
	<path d="M120.4,189.9h-14v-5.1h-0.2c-3.1,4.3-7.2,6.4-12.4,6.4c-4.6,0-8.1-1.4-10.5-4.1c-2.4-2.7-3.6-6.5-3.6-11.2v-25.6h14.7v22.1
		c0,4.2,1.8,6.3,5.3,6.3c1.9,0,3.4-0.6,4.5-1.9c1.1-1.2,1.6-3,1.6-5.1v-21.4h14.7V189.9z"/>
	<path d="M139.7,150.2v6h0.2c2.9-4.6,6.9-6.8,12.1-6.8c1.1,0,1.9,0.1,2.4,0.4v12.5H154c-4.4-0.7-7.7-0.1-10.1,1.8
		c-2.4,1.9-3.6,5.1-3.6,9.6v16.3h-14.7v-39.7H139.7z"/>
	<path d="M173.7,191.2c-5.3,0-9.6-1.9-12.9-5.6c-3.3-3.7-5-8.9-5-15.6c0-6.2,1.6-11.3,4.9-15.2c3.3-3.9,7.5-5.8,12.8-5.8
		c2.6,0,4.8,0.5,6.5,1.4c1.7,0.9,3.2,2.3,4.6,4.1h0.2v-20.1h14.7v55.6h-14v-5.5h-0.2C182.7,188.9,178.9,191.2,173.7,191.2z
		 M177.9,180.1c2.1,0,3.9-1,5.3-3c1.4-2,2.1-4.4,2.1-7.3c0-2.9-0.7-5.3-2.1-7.3c-1.4-1.9-3.1-2.9-5.3-2.9c-2.1,0-3.8,0.9-5.2,2.8
		c-1.3,1.9-2,4.3-2,7.4s0.6,5.5,1.9,7.5C174,179.1,175.7,180.1,177.9,180.1z"/>
	<path d="M229.7,189.9c-0.6-1-1.1-2.5-1.3-4.4h-0.2c-2.6,3.6-6.6,5.4-12,5.4c-3.9,0-7.1-1-9.6-3.1c-2.4-2.1-3.7-5-3.7-8.8
		c0-4,1.3-7,3.9-8.8c2.6-1.8,6.1-2.9,10.5-3.5c4.1-0.5,7-1,8.4-1.6c1.5-0.6,2.2-1.6,2.2-2.8c0-2.5-1.4-3.8-4.2-3.8
		c-3.1,0-4.8,1.6-5.2,4.7h-13.9c0.2-4.1,1.8-7.6,5.1-10.3c3.2-2.7,7.8-4,13.8-4c5.8,0,10.1,0.9,13,2.6c4.1,2.5,6.1,6.5,6.1,11.9
		v19.8c0,3.3,0.5,5.3,1.5,5.9v0.6H229.7z M221.8,182.2c1.9,0,3.4-0.6,4.7-1.7c1.3-1.1,1.9-2.8,1.9-5V172c-1.5,0.7-3.4,1.3-5.7,1.9
		c-2.1,0.5-3.5,1-4.4,1.7c-0.8,0.7-1.2,1.6-1.2,2.8c0,1.2,0.4,2.2,1.3,2.8C219.4,181.8,220.5,182.2,221.8,182.2z"/>
	<path d="M259.5,189.9l-14.2-55.6h16.3l4,19.1l2.7,15.5h0.2c1-5.5,1.9-10.4,2.9-14.7l4.3-19.8h14.7l4.3,19.7l2.8,14.9h0.2
		c1-6.3,1.9-11.5,2.8-15.6l4-18.9H321l-14.6,55.6H290l-5-23.6l-1.9-10.8h-0.2c-0.6,4-1.3,7.6-1.9,10.8l-4.8,23.6H259.5z"/>
	<path d="M338.3,190.9c-6.4,0-11.7-2-15.7-5.9c-4-3.9-6-9-6-15.1c0-6.1,2-11.1,5.9-15.1c3.9-4,9-6,15.2-6c5.9,0,10.7,1.8,14.6,5.4
		c4.8,4.4,7.1,10.9,6.9,19.4H331c0.9,4.9,3.5,7.4,7.8,7.4c2.6,0,4.4-1,5.5-3h14.2c-0.9,3.7-3.4,6.9-7.5,9.6
		C347.5,189.8,343.3,190.9,338.3,190.9z M338.1,158.7c-3.9,0-6.2,2.4-7.1,7.1h13.7c-0.3-2.2-1.1-4-2.2-5.2
		C341.3,159.4,339.8,158.7,338.1,158.7z"/>
	<path d="M389.4,191.2c-5.7,0-9.7-2.2-12.3-6.5H377v5.1h-14v-55.6h14.7v20.1h0.2c2.9-3.6,6.7-5.4,11.7-5.4c5.2,0,9.3,2,12.3,6
		c3,4,4.5,9,4.5,15c0,6.7-1.5,12-4.5,15.7C398.8,189.3,394.7,191.2,389.4,191.2z M379.2,177.1c1.4,1.9,3.2,2.9,5.4,2.9
		c2.2,0,3.9-0.9,5.1-2.7c1.2-1.8,1.8-4.3,1.8-7.5c0-3.2-0.6-5.7-1.8-7.5c-1.2-1.8-2.9-2.7-5.1-2.7c-2.2,0-4,1-5.4,2.9
		c-1.4,1.9-2.1,4.4-2.1,7.3C377.1,172.7,377.8,175.2,379.2,177.1z"/>
	<path d="M433.5,191.2c-7.6,0-13.7-1.6-18.4-4.9c-4.7-3.3-7.1-8-7.2-14.2h16.6c0.5,4.4,3.6,6.5,9.3,6.5c1.9,0,3.5-0.4,4.9-1.1
		c1.4-0.8,2.1-1.9,2.1-3.5c0-1.7-1.2-3-3.7-4c-1.1-0.4-3.4-1.1-6.9-1.9c-2.4-0.6-4.3-1.1-5.8-1.6c-1.5-0.5-3.3-1.2-5.4-2.1
		c-2.1-1-3.7-2-4.9-3.1c-1.2-1.1-2.3-2.6-3.2-4.4c-0.9-1.8-1.3-3.9-1.3-6.1c0-6,2.1-10.4,6.4-13.3c4.3-2.9,9.8-4.3,16.6-4.3
		c4,0,7.7,0.5,10.9,1.6c3.2,1.1,5.9,2.9,8.1,5.6c2.2,2.6,3.3,5.9,3.3,9.8h-16.1c-0.5-3.3-2.9-5-7.1-5c-1.8,0-3.2,0.4-4.4,1.1
		c-1.1,0.7-1.7,1.7-1.7,2.8c0,0.4,0.1,0.7,0.2,1c0.1,0.3,0.3,0.6,0.5,0.8c0.3,0.3,0.5,0.5,0.8,0.7c0.3,0.2,0.7,0.4,1.2,0.6
		c0.5,0.2,1,0.4,1.4,0.5c0.4,0.2,1.1,0.3,1.8,0.5c0.8,0.2,1.5,0.4,2.1,0.5c0.6,0.2,1.4,0.3,2.4,0.5c1,0.2,1.9,0.4,2.6,0.6
		c2.7,0.7,5,1.4,6.9,2.1c1.9,0.8,3.9,1.8,5.8,3.1s3.4,3,4.4,5.1c1,2.1,1.5,4.5,1.5,7.4c0,5.9-2.3,10.4-6.8,13.7
		C446.1,189.5,440.4,191.2,433.5,191.2z"/>
	<path d="M481.6,190.9c-6.4,0-11.7-2-15.7-5.9c-4-3.9-6-9-6-15.1c0-6.1,2-11.1,5.9-15.1c3.9-4,9-6,15.2-6c5.9,0,10.7,1.8,14.6,5.4
		c4.8,4.4,7.1,10.9,6.9,19.4h-28.3c0.9,4.9,3.5,7.4,7.8,7.4c2.6,0,4.4-1,5.5-3h14.2c-0.9,3.7-3.4,6.9-7.5,9.6
		C490.9,189.8,486.6,190.9,481.6,190.9z M481.4,158.7c-3.9,0-6.2,2.4-7.1,7.1H488c-0.3-2.2-1-4-2.2-5.2
		C484.6,159.4,483.2,158.7,481.4,158.7z"/>
	<path d="M520.3,150.2v6h0.2c2.9-4.6,6.9-6.8,12.1-6.8c1.1,0,1.9,0.1,2.4,0.4v12.5h-0.3c-4.4-0.7-7.7-0.1-10.1,1.8
		c-2.4,1.9-3.6,5.1-3.6,9.6v16.3h-14.7v-39.7H520.3z"/>
	<path d="M550.5,189.9l-13.6-39.7h15.2l4.5,15.2l2.6,9.6h0.2c1-3.7,1.9-6.9,2.6-9.6l4.5-15.2h14.8l-13.6,39.7H550.5z"/>
	<path d="M583.4,145.4v-11.1h14.7v11.1H583.4z M583.4,189.9v-39.7h14.7v39.7H583.4z"/>
	<path d="M623.5,191.1c-6.5,0-11.7-2-15.8-5.9c-4-3.9-6-9-6-15.1c0-6.1,2-11.2,6-15.1c4-4,9.3-6,15.8-6c5.5,0,10,1.5,13.6,4.4
		c3.6,2.9,5.6,6.8,6.1,11.5H629c-0.8-3.7-2.7-5.6-5.7-5.6c-4.5,0-6.7,3.6-6.7,10.8c0,3.4,0.6,6,1.8,7.9c1.2,1.9,2.9,2.8,5.1,2.8
		c3.4,0,5.3-2.3,5.8-6.9h14.2c0,5-1.9,9.1-5.6,12.4C634.2,189.5,629.4,191.1,623.5,191.1z"/>
	<path d="M666.9,190.9c-6.4,0-11.7-2-15.7-5.9c-4-3.9-6-9-6-15.1c0-6.1,2-11.1,5.9-15.1c3.9-4,9-6,15.2-6c5.9,0,10.7,1.8,14.6,5.4
		c4.8,4.4,7.1,10.9,6.9,19.4h-28.3c0.9,4.9,3.5,7.4,7.8,7.4c2.6,0,4.4-1,5.5-3h14.2c-0.9,3.7-3.4,6.9-7.5,9.6
		C676.1,189.8,671.9,190.9,666.9,190.9z M666.7,158.7c-3.9,0-6.2,2.4-7.1,7.1h13.7c-0.3-2.2-1-4-2.2-5.2
		C669.9,159.4,668.4,158.7,666.7,158.7z"/>
	<path d="M709.2,191.2c-6,0-10.8-1.2-14.5-3.7c-3.6-2.5-5.5-6-5.5-10.4h14.1c0.3,3.5,2.3,5.2,6,5.2c3.4,0,5.1-1.1,5.1-3.4
		c0-1.3-0.7-2.3-2.1-2.8c-1.4-0.5-3.5-1-6.4-1.4c-0.6-0.1-1-0.1-1.2-0.2c-1.6-0.3-3-0.5-4.1-0.8c-1.1-0.3-2.4-0.7-3.8-1.3
		c-1.4-0.6-2.6-1.3-3.4-2.2s-1.6-2-2.2-3.5c-0.6-1.5-0.9-3.1-0.9-5.1c0-3.9,1.7-7,5.2-9.3c3.5-2.3,7.8-3.4,12.8-3.4
		c6,0,10.5,1.1,13.7,3.2c3.2,2.1,4.9,5.2,5.2,9.1h-13.8c-0.3-2.4-2-3.6-5-3.6c-1.2,0-2.2,0.2-3,0.7c-0.8,0.5-1.2,1.2-1.2,2.1
		c0,1,0.6,1.7,1.9,2.1c1.3,0.4,3.4,0.8,6.3,1.2c1.9,0.3,3.4,0.5,4.6,0.7c1.2,0.2,2.6,0.7,4.3,1.3c1.7,0.6,3,1.4,4,2.3
		c1,0.9,1.8,2.2,2.5,3.7c0.7,1.6,1.1,3.4,1.1,5.6c0,4.5-1.8,7.9-5.4,10.2C719.7,190,715,191.2,709.2,191.2z"/>
</g>
</svg>
